<?xml version="1.0" encoding="utf-8"?>
<!-- Generator: Adobe Illustrator 15.1.0, SVG Export Plug-In . SVG Version: 6.00 Build 0)  -->
<!DOCTYPE svg PUBLIC "-//W3C//DTD SVG 1.1//EN" "http://www.w3.org/Graphics/SVG/1.1/DTD/svg11.dtd">
<svg version="1.1" id="Ebene_1" xmlns="http://www.w3.org/2000/svg" xmlns:xlink="http://www.w3.org/1999/xlink" x="0px" y="0px"
	 width="390.246px" height="112.247px" viewBox="0 0 390.246 112.247" enable-background="new 0 0 390.246 112.247"
	 xml:space="preserve">
<rect x="227.005" y="2.799" fill="#DADADB" width="13.641" height="8.923"/>
<path fill="#E6E6E6" d="M14.139,59.348h16.156L44.36,14.239H30.298l-5.234,18.402c-1.496,5.087-2.021,9.949-2.169,13.093h-0.677
	c-0.445-5.161-1.421-9.875-2.241-13.093l-5.015-18.402H0L14.139,59.348z"/>
<path fill="#E6E6E6" d="M67.624,45.958c-1.87,1.57-4.339,3.666-7.479,3.666c-2.618,0-4.489-1.797-4.489-4.414
	c0-3.74,2.769-6.061,7.107-6.061c1.422,0,3.217,0.148,4.86,0.301V45.958z M81.763,59.348c-0.227-2.096-0.302-5.236-0.302-7.93
	V32.566c0-11.371-4.04-19.376-18.7-19.376c-15.41,0-18.63,9.8-19.304,11.895l12.494,3.591c0.522-2.918,2.021-6.06,6.134-6.06
	c4.414,0,5.536,2.544,5.536,6.883v1.421c-1.496-0.148-3.517-0.299-5.312-0.299c-10.623,0-20.272,4.938-20.272,16.159
	c0,5.387,2.843,13.615,12.866,13.615c5.312,0,9.651-3.891,12.719-6.883h0.227c0,1.646,0.225,3.891,0.3,5.835L81.763,59.348
	L81.763,59.348z"/>
<path fill="#E6E6E6" d="M133.922,31.443h-14.139c0-2.768,0.747-8.826,7.33-8.826C133.099,22.617,133.773,28.602,133.922,31.443
	 M147.762,40.646v-3.591c0-16.757-9.354-23.864-21.174-23.864c-13.915,0-21.171,10.698-21.171,23.789
	c0,8.155,3.291,23.416,21.171,23.416c9.202,0,15.188-3.065,19.229-11.597l-11.896-3.889c-0.972,2.094-2.543,5.461-7.104,5.461
	c-7.031,0-7.031-6.733-7.031-9.728L147.762,40.646L147.762,40.646z"/>
<path fill="#E6E6E6" d="M177.804,59.348h14.062V27.479c0-5.312,0-14.289-11.146-14.289c-6.138,0-9.804,2.919-14.812,7.107v-6.059
	h-14.062v45.109h14.062V29.274c2.021-1.87,4.862-4.563,7.556-4.563c3.44,0,4.342,3.067,4.342,6.882L177.804,59.348L177.804,59.348z"
	/>
<path fill="#E6E6E6" d="M200.746,9.691v9.213h-6.964v9.431h6.964v18.208c0,9.355,5.876,13.638,14.942,13.638
	c2.976,0,5.949-0.437,8.852-1.015v-9.726c-1.451,0.29-2.898,0.58-4.566,0.58c-3.849,0-5.808-2.03-5.808-5.515V28.335h10.374v-9.431
	h-10.374V4.034L200.746,9.691z"/>
<rect x="227.005" y="15.422" fill="#E6E6E6" width="13.641" height="43.743"/>
<path fill="#E6E6E6" d="M270.168,59.165h13.641V28.263c0-5.15,0-13.855-10.812-13.855c-5.947,0-9.502,2.829-14.362,6.892v-5.877
	h-13.638v43.744h13.638V30.003c1.958-1.813,4.718-4.425,7.327-4.425c3.336,0,4.207,2.975,4.207,6.674V59.165z"/>
<path fill="#E6E6E6" d="M313.476,32.106h-13.711c0-2.684,0.728-8.559,7.105-8.559C312.678,23.548,313.33,29.351,313.476,32.106
	 M326.896,41.029v-3.481c0-16.249-9.067-23.14-20.528-23.14c-13.492,0-20.529,10.374-20.529,23.068
	c0,7.906,3.191,22.706,20.529,22.706c8.922,0,14.729-2.977,18.646-11.244l-11.534-3.771c-0.942,2.029-2.467,5.295-6.892,5.295
	c-6.819,0-6.819-6.527-6.819-9.432L326.896,41.029L326.896,41.029z"/>
<rect x="328.762" y="49.055" fill="#E6E6E6" width="9.85" height="10.109"/>
<polygon fill="#E6E6E6" points="85.205,58.859 94.563,65.493 103.3,58.859 98.228,8.464 99.882,4.769 100.553,0 88.1,0 
	88.664,4.635 90.167,8.768 "/>
<path fill="#E6E6E6" d="M374.562,41.929c0,3.733-2.622,6.116-6.593,6.116h-9.06V35.813h8.421
	C371.939,35.813,374.562,37.084,374.562,41.929 M373.214,19.212c0,3.813-2.308,5.48-6.195,5.48h-8.104V13.731h8.104
	C371.305,13.731,373.214,14.844,373.214,19.212 M387.905,16.75c0-14.139-15.092-14.139-20.016-14.139H343.98v56.556h23.353
	c5.882,0,22.16,0,22.16-15.17c0-10.563-7.307-13.187-11.994-13.822v-0.397C380.359,29.061,387.905,27.313,387.905,16.75"/>
<g>
	<g>
		<g>
			<path fill="#E6E6E6" d="M373.121,95.691h4.125v-4.235h-4.125V95.691z M364.182,95.691h5.17V74.323h-5.17V95.691z M352.965,92.116
				c-0.964,0-1.65-0.66-1.65-1.621c0-1.377,1.018-2.229,2.612-2.229c0.521,0,1.183,0.055,1.787,0.109v2.393
				C355.025,91.346,354.117,92.116,352.965,92.116 M360.802,85.844c0-4.18-1.485-7.122-6.875-7.122
				c-5.665,0-6.851,3.604-7.098,4.372l4.595,1.32c0.19-1.072,0.741-2.229,2.255-2.229c1.623,0,2.035,0.936,2.035,2.529v0.521
				c-0.552-0.056-1.293-0.109-1.952-0.109c-3.904,0-7.453,1.813-7.453,5.939c0,1.979,1.046,5.006,4.729,5.006
				c1.953,0,3.55-1.431,4.678-2.531h0.084c0,0.605,0.081,1.433,0.106,2.146h5.006c-0.082-0.771-0.108-1.925-0.108-2.914
				L360.802,85.844L360.802,85.844z M344.849,83.784c-0.221-1.871-1.843-5.062-6.604-5.062c-5.359,0-7.533,4.071-7.533,8.718
				c0,4.455,2.174,8.637,7.533,8.637c5.393,0,6.383-3.549,6.904-5.363l-4.539-1.045c-0.136,1.35-0.659,2.725-2.2,2.725
				c-2.255,0-2.42-2.312-2.42-5.115c0-2.668,0-5.088,2.366-5.088c1.43,0,2.007,1.4,2.146,2.725L344.849,83.784z M322.903,77.706
				h5.17v-3.383h-5.17V77.706z M322.903,95.691h5.17V79.107h-5.17V95.691z M309.785,83.92c0.714-0.771,1.35-1.348,2.394-1.348
				c2.42,0,2.529,2.969,2.529,5.03c0,1.515-0.164,4.621-2.475,4.621c-1.129,0-1.763-0.634-2.448-1.267V83.92z M304.613,101.054
				h5.172V93.93c1.814,1.844,3.271,2.146,4.564,2.146c4.729,0,5.638-4.729,5.638-8.91c0-3.713-0.907-8.443-5.772-8.443
				c-2.036,0-3.108,0.936-4.43,2.062v-1.68h-5.172V101.054z M291.137,87.415c0-2.531,0.439-5.006,2.751-5.006
				c2.475,0,2.75,2.475,2.75,5.006c0,2.502-0.275,4.979-2.75,4.979C291.579,92.391,291.137,89.917,291.137,87.415 M285.857,87.415
				c0,4.785,2.558,8.662,8.031,8.662c5.473,0,8.028-3.877,8.028-8.662c0-4.812-2.558-8.69-8.028-8.69
				C288.415,78.722,285.857,82.6,285.857,87.415 M274.582,95.691h5.171v-10.45c0.854-1.154,2.146-1.843,3.77-1.843
				c0.907,0,1.375,0.11,1.678,0.247v-4.646c-0.303-0.056-0.633-0.082-0.936-0.082c-1.102,0-3.41,0.77-4.455,2.858h-0.057v-2.668
				h-5.171V95.691L274.582,95.691z M263.471,76.935v3.493h-2.642v3.574h2.642v6.901c0,3.55,2.228,5.171,5.666,5.171
				c1.127,0,2.255-0.164,3.354-0.386v-3.687c-0.551,0.109-1.1,0.222-1.732,0.222c-1.455,0-2.198-0.771-2.198-2.093V84h3.933v-3.574
				h-3.933v-5.639L263.471,76.935z M238.17,82.573h7.123l-7.396,9.627v3.491h13.751v-3.465h-7.701l7.398-9.709v-3.41H238.17V82.573z
				 M222.879,82.573h7.123l-7.396,9.627v3.491h13.751v-3.465h-7.7l7.398-9.709v-3.41h-13.176V82.573L222.879,82.573z
				 M212.373,92.116c-0.962,0-1.648-0.66-1.648-1.621c0-1.377,1.019-2.229,2.611-2.229c0.522,0,1.185,0.055,1.787,0.109v2.393
				C214.436,91.346,213.529,92.116,212.373,92.116 M220.212,85.844c0-4.18-1.483-7.122-6.876-7.122
				c-5.665,0-6.848,3.604-7.097,4.372l4.594,1.32c0.193-1.072,0.743-2.229,2.256-2.229c1.621,0,2.034,0.936,2.034,2.529v0.521
				c-0.549-0.056-1.292-0.109-1.952-0.109c-3.903,0-7.453,1.813-7.453,5.939c0,1.979,1.047,5.006,4.731,5.006
				c1.951,0,3.547-1.431,4.674-2.531h0.083c0,0.605,0.082,1.433,0.11,2.146h5.005c-0.082-0.771-0.109-1.925-0.109-2.914V85.844
				L220.212,85.844z M203.27,74.323h-5.171v3.383h5.171V74.323z M203.27,79.107h-5.171v15.951c0,1.265-0.305,2.256-1.598,2.256
				c-0.412,0-0.77-0.082-0.962-0.192l-0.22,3.795c0.825,0.192,1.457,0.33,2.419,0.33c5.529,0,5.529-4.07,5.529-6.519L203.27,79.107
				L203.27,79.107z M183.08,95.691h4.125v-4.235h-4.125V95.691z M166.827,82.573h7.122l-7.398,9.627v3.491h13.754v-3.465h-7.701
				L180,82.517v-3.41h-13.173V82.573z M151.535,82.573h7.123l-7.396,9.627v3.491h13.751v-3.465h-7.701l7.396-9.709v-3.41h-13.173
				L151.535,82.573L151.535,82.573z M141.03,92.116c-0.962,0-1.65-0.66-1.65-1.621c0-1.377,1.019-2.229,2.613-2.229
				c0.522,0,1.182,0.055,1.788,0.109v2.393C143.092,91.346,142.185,92.116,141.03,92.116 M148.867,85.844
				c0-4.18-1.484-7.122-6.875-7.122c-5.666,0-6.849,3.604-7.096,4.372l4.593,1.32c0.192-1.072,0.742-2.229,2.254-2.229
				c1.623,0,2.036,0.936,2.036,2.529v0.521c-0.55-0.056-1.292-0.109-1.953-0.109c-3.905,0-7.453,1.813-7.453,5.939
				c0,1.979,1.045,5.006,4.73,5.006c1.953,0,3.548-1.431,4.676-2.531h0.083c0,0.605,0.082,1.433,0.11,2.146h5.004
				c-0.082-0.771-0.11-1.925-0.11-2.914L148.867,85.844L148.867,85.844z M131.927,74.323h-5.172v3.383h5.172V74.323z
				 M131.927,79.107h-5.173v15.951c0,1.265-0.302,2.256-1.595,2.256c-0.413,0-0.77-0.082-0.963-0.192l-0.22,3.795
				c0.826,0.192,1.458,0.33,2.421,0.33c5.527,0,5.527-4.07,5.527-6.519V79.107H131.927z M107.56,76.935v3.493h-2.642v3.574h2.642
				v6.901c0,3.55,2.228,5.171,5.666,5.171c1.128,0,2.255-0.164,3.354-0.386v-3.687c-0.55,0.109-1.101,0.222-1.731,0.222
				c-1.457,0-2.2-0.771-2.2-2.093V84h3.933v-3.574h-3.933v-5.639L107.56,76.935z M92.984,87.415c0-2.531,0.438-5.006,2.75-5.006
				c2.475,0,2.75,2.475,2.75,5.006c0,2.502-0.275,4.979-2.75,4.979C93.424,92.391,92.984,89.917,92.984,87.415 M87.704,87.415
				c0,4.785,2.56,8.662,8.03,8.662s8.031-3.877,8.031-8.662c0-4.812-2.56-8.69-8.031-8.69S87.704,82.6,87.704,87.415 M79.839,95.691
				h5.17V83.974c0-1.951,0-5.252-4.099-5.252c-2.255,0-3.602,1.073-5.445,2.612v-2.229h-5.17V95.69h5.17V84.635
				c0.743-0.688,1.788-1.678,2.778-1.678c1.264,0,1.595,1.127,1.595,2.528L79.839,95.691L79.839,95.691z M46.094,82.573h7.121
				L45.82,92.2v3.491h13.75v-3.465h-7.701l7.398-9.709v-3.41H46.094V82.573z M30.802,82.573h7.123L30.528,92.2v3.491h13.75v-3.465
				h-7.7l7.398-9.709v-3.41H30.802V82.573z M20.297,92.116c-0.963,0-1.648-0.66-1.648-1.621c0-1.377,1.018-2.229,2.611-2.229
				c0.522,0,1.184,0.055,1.787,0.109v2.393C22.36,91.346,21.452,92.116,20.297,92.116 M28.135,85.844
				c0-4.18-1.483-7.122-6.875-7.122c-5.664,0-6.849,3.604-7.096,4.372l4.593,1.32c0.193-1.072,0.743-2.229,2.258-2.229
				c1.62,0,2.032,0.936,2.032,2.529v0.521c-0.55-0.056-1.292-0.109-1.95-0.109c-3.905,0-7.453,1.813-7.453,5.939
				c0,1.979,1.045,5.006,4.729,5.006c1.953,0,3.548-1.431,4.675-2.531h0.083c0,0.605,0.083,1.433,0.11,2.146h5.005
				c-0.083-0.771-0.108-1.925-0.108-2.914v-6.93H28.135z M11.194,74.323h-5.17v3.383h5.17V74.323z M11.194,79.107h-5.17v15.951
				c0,1.265-0.303,2.256-1.595,2.256c-0.413,0-0.771-0.082-0.965-0.192l-0.219,3.795c0.825,0.192,1.457,0.33,2.42,0.33
				c5.528,0,5.528-4.07,5.528-6.519V79.107L11.194,79.107z"/>
		</g>
	</g>
</g>
</svg>
