<?xml version="1.0" encoding="utf-8"?>
<!-- Generator: Adobe Illustrator 16.0.0, SVG Export Plug-In . SVG Version: 6.00 Build 0)  -->
<!DOCTYPE svg PUBLIC "-//W3C//DTD SVG 1.1//EN" "http://www.w3.org/Graphics/SVG/1.1/DTD/svg11.dtd">
<svg version="1.1" id="Capa_1" xmlns="http://www.w3.org/2000/svg" xmlns:xlink="http://www.w3.org/1999/xlink" x="0px" y="0px"
	 width="512px" height="512px" viewBox="0 0 512 512" enable-background="new 0 0 512 512" xml:space="preserve">
<g>
	<g id="_x33_56._Play">
		<g>
			<path fill="#3D52DA" stroke="#3D52DA" stroke-miterlimit="10" d="M477.658,128.021C406.978,5.599,250.431-36.347,128.02,34.345
				c-122.421,70.67-164.37,227.21-93.677,349.627c70.67,122.422,227.212,164.375,349.625,93.688
				C506.391,406.967,548.358,250.434,477.658,128.021z M358.378,433.314C260.455,489.87,135.21,456.31,78.671,358.368
				C22.119,260.446,55.69,135.202,153.616,78.675c97.929-56.553,223.167-22.996,279.709,74.942
				C489.87,251.554,456.309,376.771,358.378,433.314z M348.142,245.596l-134.027-78.168c-12.213-7.131-22.065-1.43-21.997,12.698
				l0.687,155.154c0.062,14.124,10.034,19.874,22.283,12.799l133.002-76.788C360.326,264.229,360.353,252.726,348.142,245.596z"/>
		</g>
	</g>
</g>
</svg>
