<?xml version="1.0" encoding="utf-8"?>
<!-- Generator: Adobe Illustrator 15.1.0, SVG Export Plug-In . SVG Version: 6.00 Build 0)  -->
<!DOCTYPE svg PUBLIC "-//W3C//DTD SVG 1.1//EN" "http://www.w3.org/Graphics/SVG/1.1/DTD/svg11.dtd">
<svg version="1.1" id="Ebene_1" xmlns="http://www.w3.org/2000/svg" xmlns:xlink="http://www.w3.org/1999/xlink" x="0px" y="0px"
	 width="389.492px" height="65.493px" viewBox="0 0 389.492 65.493" enable-background="new 0 0 389.492 65.493"
	 xml:space="preserve">
<rect x="227.005" y="2.799" fill="#FFFFFF" width="13.638" height="8.923"/>
<path fill="#FFFFFF" d="M14.139,59.348h16.159l14.063-45.109H30.298l-5.237,18.402c-1.496,5.087-2.02,9.949-2.169,13.093h-0.674
	c-0.448-5.161-1.421-9.875-2.244-13.093l-5.012-18.402H0L14.139,59.348z"/>
<path fill="#FFFFFF" d="M67.624,45.958c-1.87,1.57-4.339,3.666-7.481,3.666c-2.618,0-4.489-1.797-4.489-4.414
	c0-3.74,2.769-6.061,7.107-6.061c1.422,0,3.217,0.148,4.863,0.301V45.958z M81.763,59.348c-0.224-2.096-0.299-5.236-0.299-7.93
	V32.566c0-11.371-4.04-19.376-18.703-19.376c-15.41,0-18.627,9.8-19.301,11.895l12.494,3.591c0.522-2.918,2.019-6.06,6.134-6.06
	c4.414,0,5.536,2.544,5.536,6.883v1.421c-1.496-0.148-3.517-0.299-5.312-0.299c-10.623,0-20.272,4.938-20.272,16.159
	c0,5.387,2.843,13.615,12.866,13.615c5.312,0,9.651-3.891,12.719-6.883h0.224c0,1.646,0.225,3.891,0.3,5.835L81.763,59.348
	L81.763,59.348z"/>
<path fill="#FFFFFF" d="M133.922,31.443h-14.139c0-2.768,0.747-8.826,7.33-8.826C133.099,22.617,133.773,28.602,133.922,31.443
	 M147.762,40.646v-3.591c0-16.757-9.351-23.864-21.171-23.864c-13.915,0-21.171,10.698-21.171,23.789
	c0,8.155,3.291,23.416,21.171,23.416c9.202,0,15.186-3.065,19.226-11.597l-11.895-3.889c-0.972,2.094-2.543,5.461-7.107,5.461
	c-7.031,0-7.031-6.733-7.031-9.727L147.762,40.646L147.762,40.646z"/>
<path fill="#FFFFFF" d="M177.804,59.348h14.064V27.479c0-5.312,0-14.289-11.146-14.289c-6.135,0-9.801,2.919-14.812,7.107v-6.059
	h-14.064v45.109h14.064V29.274c2.02-1.87,4.862-4.563,7.556-4.563c3.44,0,4.339,3.067,4.339,6.882V59.348z"/>
<path fill="#FFFFFF" d="M200.746,9.691v9.213h-6.964v9.431h6.964v18.208c0,9.356,5.876,13.638,14.942,13.638
	c2.976,0,5.949-0.437,8.852-1.015v-9.723c-1.451,0.29-2.901,0.58-4.569,0.58c-3.846,0-5.805-2.031-5.805-5.514V28.335h10.374v-9.431
	h-10.374V4.034L200.746,9.691z"/>
<rect x="227.005" y="15.422" fill="#FFFFFF" width="13.638" height="43.743"/>
<path fill="#FFFFFF" d="M270.168,59.165h13.638V28.263c0-5.15,0-13.855-10.81-13.855c-5.947,0-9.502,2.829-14.362,6.892v-5.877
	h-13.638v43.744h13.638V30.003c1.958-1.813,4.715-4.425,7.327-4.425c3.336,0,4.207,2.975,4.207,6.674V59.165z"/>
<path fill="#FFFFFF" d="M313.476,32.106h-13.711c0-2.684,0.728-8.559,7.108-8.559C312.678,23.548,313.33,29.351,313.476,32.106
	 M326.896,41.029v-3.481c0-16.249-9.067-23.141-20.528-23.141c-13.492,0-20.529,10.374-20.529,23.068
	c0,7.907,3.191,22.706,20.529,22.706c8.922,0,14.727-2.975,18.644-11.244l-11.534-3.771c-0.942,2.03-2.467,5.295-6.892,5.295
	c-6.819,0-6.819-6.527-6.819-9.431H326.896z"/>
<rect x="328.762" y="49.055" fill="#FFFFFF" width="9.85" height="10.109"/>
<polygon fill="#FFFFFF" points="85.205,58.859 94.563,65.493 103.3,58.859 98.228,8.464 99.882,4.769 100.553,0 88.1,0 
	88.664,4.635 90.167,8.768 "/>
<path fill="#FFFFFF" d="M374.562,41.929c0,3.733-2.622,6.116-6.593,6.116h-9.057V35.813h8.421
	C371.939,35.813,374.562,37.084,374.562,41.929 M373.211,19.212c0,3.813-2.305,5.48-6.195,5.48h-8.104V13.731h8.104
	C371.305,13.731,373.211,14.844,373.211,19.212 M387.905,16.75c0-14.139-15.092-14.139-20.016-14.139H343.98v56.556h23.353
	c5.879,0,22.16,0,22.16-15.172c0-10.564-7.307-13.187-11.994-13.822v-0.397C380.359,29.061,387.905,27.313,387.905,16.75"/>
</svg>
