<?xml version="1.0" encoding="utf-8"?>
<!-- Generator: Adobe Illustrator 15.1.0, SVG Export Plug-In . SVG Version: 6.00 Build 0)  -->
<!DOCTYPE svg PUBLIC "-//W3C//DTD SVG 1.1//EN" "http://www.w3.org/Graphics/SVG/1.1/DTD/svg11.dtd">
<svg version="1.1" id="Ebene_1" xmlns="http://www.w3.org/2000/svg" xmlns:xlink="http://www.w3.org/1999/xlink" x="0px" y="0px"
	 width="390.246px" height="112.247px" viewBox="0 0 390.246 112.247" enable-background="new 0 0 390.246 112.247"
	 xml:space="preserve">
<rect x="227.005" y="2.799" fill="#FFFFFF" width="13.639" height="8.923"/>
<path fill="#FFFFFF" d="M14.139,59.348h16.158l14.063-45.109H30.298l-5.236,18.402c-1.496,5.087-2.021,9.949-2.169,13.093h-0.675
	c-0.447-5.161-1.421-9.875-2.243-13.093l-5.013-18.402H0L14.139,59.348z"/>
<path fill="#FFFFFF" d="M67.624,45.958c-1.87,1.57-4.339,3.666-7.48,3.666c-2.618,0-4.489-1.797-4.489-4.414
	c0-3.74,2.769-6.061,7.107-6.061c1.422,0,3.217,0.148,4.862,0.301V45.958z M81.763,59.348c-0.225-2.096-0.3-5.236-0.3-7.93V32.566
	c0-11.371-4.04-19.376-18.702-19.376c-15.41,0-18.628,9.8-19.302,11.895l12.494,3.591c0.522-2.918,2.02-6.06,6.134-6.06
	c4.414,0,5.536,2.544,5.536,6.883v1.421c-1.496-0.148-3.517-0.299-5.312-0.299c-10.623,0-20.272,4.938-20.272,16.159
	c0,5.387,2.843,13.615,12.866,13.615c5.312,0,9.651-3.891,12.719-6.883h0.225c0,1.646,0.225,3.891,0.3,5.835L81.763,59.348
	L81.763,59.348z"/>
<path fill="#FFFFFF" d="M133.922,31.443h-14.139c0-2.768,0.747-8.826,7.33-8.826C133.099,22.617,133.773,28.602,133.922,31.443
	 M147.762,40.646v-3.591c0-16.757-9.352-23.864-21.172-23.864c-13.915,0-21.171,10.698-21.171,23.789
	c0,8.155,3.291,23.416,21.171,23.416c9.202,0,15.187-3.065,19.227-11.597l-11.896-3.889c-0.972,2.094-2.543,5.461-7.106,5.461
	c-7.031,0-7.031-6.733-7.031-9.728L147.762,40.646L147.762,40.646z"/>
<path fill="#FFFFFF" d="M177.804,59.348h14.063V27.479c0-5.312,0-14.289-11.146-14.289c-6.136,0-9.802,2.919-14.812,7.107v-6.059
	h-14.063v45.109h14.063V29.274c2.021-1.87,4.862-4.563,7.556-4.563c3.44,0,4.34,3.067,4.34,6.882L177.804,59.348L177.804,59.348z"/>
<path fill="#FFFFFF" d="M200.746,9.691v9.213h-6.964v9.431h6.964v18.208c0,9.355,5.876,13.638,14.942,13.638
	c2.976,0,5.949-0.437,8.852-1.015v-9.724c-1.451,0.29-2.9,0.58-4.568,0.58c-3.847,0-5.806-2.03-5.806-5.515V28.335h10.374v-9.431
	h-10.374V4.034L200.746,9.691z"/>
<rect x="227.005" y="15.422" fill="#FFFFFF" width="13.639" height="43.743"/>
<path fill="#FFFFFF" d="M270.168,59.165h13.639V28.263c0-5.15,0-13.855-10.811-13.855c-5.947,0-9.502,2.829-14.362,6.892v-5.877
	h-13.638v43.744h13.638V30.003c1.958-1.813,4.716-4.425,7.327-4.425c3.336,0,4.207,2.975,4.207,6.674V59.165z"/>
<path fill="#FFFFFF" d="M313.476,32.106h-13.711c0-2.684,0.728-8.559,7.107-8.559C312.678,23.548,313.33,29.351,313.476,32.106
	 M326.896,41.029v-3.481c0-16.249-9.067-23.14-20.528-23.14c-13.492,0-20.529,10.374-20.529,23.068
	c0,7.906,3.191,22.706,20.529,22.706c8.922,0,14.728-2.976,18.645-11.244l-11.534-3.771c-0.942,2.029-2.467,5.295-6.892,5.295
	c-6.819,0-6.819-6.527-6.819-9.432L326.896,41.029L326.896,41.029z"/>
<rect x="328.762" y="49.055" fill="#FFFFFF" width="9.85" height="10.109"/>
<polygon fill="#FFFFFF" points="85.205,58.859 94.563,65.493 103.3,58.859 98.228,8.464 99.882,4.769 100.553,0 88.1,0 
	88.664,4.635 90.167,8.768 "/>
<path fill="#FFFFFF" d="M374.562,41.929c0,3.733-2.622,6.116-6.593,6.116h-9.058V35.813h8.421
	C371.939,35.813,374.562,37.084,374.562,41.929 M373.212,19.212c0,3.813-2.306,5.48-6.195,5.48h-8.104V13.731h8.104
	C371.305,13.731,373.212,14.844,373.212,19.212 M387.905,16.75c0-14.139-15.092-14.139-20.016-14.139H343.98v56.556h23.353
	c5.88,0,22.16,0,22.16-15.172c0-10.563-7.307-13.187-11.994-13.822v-0.397C380.359,29.061,387.905,27.313,387.905,16.75"/>
<g>
	<defs>
		<rect id="SVGID_1_" x="3.246" y="74.322" width="374" height="26.925"/>
	</defs>
	<clipPath id="SVGID_2_">
		<use xlink:href="#SVGID_1_"  overflow="visible"/>
	</clipPath>
	<path clip-path="url(#SVGID_2_)" fill="#FFFFFF" d="M373.121,95.691h4.125v-4.235h-4.125V95.691z M364.182,95.691h5.17V74.322
		h-5.17V95.691z M352.963,92.116c-0.963,0-1.65-0.66-1.65-1.622c0-1.376,1.018-2.228,2.612-2.228c0.522,0,1.183,0.055,1.787,0.109
		v2.393C355.025,91.346,354.117,92.116,352.963,92.116 M360.8,85.845c0-4.181-1.485-7.123-6.875-7.123
		c-5.665,0-6.849,3.604-7.096,4.372l4.593,1.321c0.192-1.072,0.743-2.228,2.255-2.228c1.623,0,2.035,0.935,2.035,2.53v0.522
		c-0.55-0.056-1.293-0.11-1.952-0.11c-3.904,0-7.453,1.814-7.453,5.94c0,1.979,1.046,5.005,4.729,5.005
		c1.953,0,3.548-1.43,4.676-2.53h0.084c0,0.605,0.081,1.431,0.108,2.146h5.006c-0.082-0.771-0.11-1.925-0.11-2.914V85.845z
		 M344.849,83.783c-0.221-1.87-1.843-5.061-6.602-5.061c-5.361,0-7.535,4.071-7.535,8.718c0,4.455,2.174,8.636,7.535,8.636
		c5.391,0,6.381-3.548,6.904-5.362l-4.539-1.046c-0.136,1.349-0.659,2.724-2.2,2.724c-2.255,0-2.42-2.311-2.42-5.115
		c0-2.668,0-5.088,2.366-5.088c1.43,0,2.007,1.402,2.145,2.723L344.849,83.783z M322.903,77.705h5.17v-3.383h-5.17V77.705z
		 M322.903,95.691h5.17V79.107h-5.17V95.691z M309.785,83.921c0.714-0.771,1.348-1.349,2.392-1.349c2.42,0,2.531,2.97,2.531,5.032
		c0,1.513-0.166,4.621-2.475,4.621c-1.129,0-1.763-0.632-2.448-1.266V83.921z M304.613,101.054h5.172V93.93
		c1.814,1.844,3.271,2.146,4.564,2.146c4.73,0,5.638-4.729,5.638-8.91c0-3.713-0.907-8.443-5.774-8.443
		c-2.036,0-3.108,0.935-4.428,2.062v-1.678h-5.172V101.054z M291.137,87.414c0-2.53,0.441-5.005,2.751-5.005
		c2.475,0,2.75,2.475,2.75,5.005c0,2.502-0.275,4.978-2.75,4.978C291.579,92.391,291.137,89.916,291.137,87.414 M285.857,87.414
		c0,4.785,2.558,8.662,8.031,8.662c5.473,0,8.03-3.877,8.03-8.662c0-4.813-2.558-8.691-8.03-8.691
		C288.415,78.722,285.857,82.6,285.857,87.414 M274.582,95.691h5.171v-10.45c0.853-1.155,2.145-1.843,3.768-1.843
		c0.907,0,1.375,0.11,1.678,0.247v-4.647c-0.303-0.055-0.633-0.082-0.936-0.082c-1.1,0-3.41,0.769-4.455,2.859h-0.055v-2.668h-5.171
		V95.691z M263.471,76.935v3.493h-2.64v3.574h2.64v6.903c0,3.548,2.228,5.17,5.666,5.17c1.127,0,2.255-0.164,3.354-0.385v-3.685
		c-0.551,0.109-1.1,0.22-1.732,0.22c-1.457,0-2.2-0.771-2.2-2.091v-6.133h3.933v-3.574h-3.933v-5.64L263.471,76.935z M238.17,82.573
		h7.123l-7.397,9.626v3.492h13.751v-3.465h-7.701l7.398-9.709v-3.41H238.17V82.573z M222.879,82.573h7.123l-7.398,9.626v3.492
		h13.751v-3.465h-7.7l7.398-9.709v-3.41h-13.174V82.573z M212.373,92.116c-0.962,0-1.65-0.66-1.65-1.622
		c0-1.376,1.019-2.228,2.613-2.228c0.522,0,1.183,0.055,1.787,0.109v2.393C214.436,91.346,213.529,92.116,212.373,92.116
		 M220.212,85.845c0-4.181-1.485-7.123-6.876-7.123c-5.665,0-6.848,3.604-7.097,4.372l4.594,1.321
		c0.193-1.072,0.743-2.228,2.256-2.228c1.621,0,2.034,0.935,2.034,2.53v0.522c-0.549-0.056-1.292-0.11-1.952-0.11
		c-3.905,0-7.453,1.814-7.453,5.94c0,1.979,1.045,5.005,4.731,5.005c1.951,0,3.547-1.43,4.674-2.53h0.083
		c0,0.605,0.082,1.431,0.11,2.146h5.005c-0.082-0.771-0.109-1.925-0.109-2.914V85.845z M203.27,74.323h-5.171v3.383h5.171V74.323z
		 M203.27,79.107h-5.171v15.951c0,1.265-0.303,2.256-1.596,2.256c-0.412,0-0.77-0.082-0.962-0.193l-0.22,3.795
		c0.825,0.193,1.457,0.33,2.419,0.33c5.529,0,5.529-4.069,5.529-6.518V79.107z M183.08,95.691h4.125v-4.235h-4.125V95.691z
		 M166.827,82.573h7.122l-7.398,9.626v3.492h13.752v-3.465h-7.701L180,82.517v-3.41h-13.173V82.573z M151.535,82.573h7.123
		l-7.397,9.626v3.492h13.751v-3.465h-7.701l7.398-9.709v-3.41h-13.173V82.573z M141.03,92.116c-0.962,0-1.65-0.66-1.65-1.622
		c0-1.376,1.017-2.228,2.613-2.228c0.522,0,1.182,0.055,1.788,0.109v2.393C143.092,91.346,142.185,92.116,141.03,92.116
		 M148.867,85.845c0-4.181-1.484-7.123-6.875-7.123c-5.666,0-6.849,3.604-7.096,4.372l4.593,1.321
		c0.192-1.072,0.742-2.228,2.254-2.228c1.623,0,2.036,0.935,2.036,2.53v0.522c-0.55-0.056-1.292-0.11-1.953-0.11
		c-3.905,0-7.453,1.814-7.453,5.94c0,1.979,1.045,5.005,4.73,5.005c1.953,0,3.548-1.43,4.676-2.53h0.083
		c0,0.605,0.082,1.431,0.11,2.146h5.004c-0.082-0.771-0.11-1.925-0.11-2.914V85.845z M131.927,74.323h-5.17v3.383h5.17V74.323z
		 M131.927,79.107h-5.171v15.951c0,1.265-0.302,2.256-1.595,2.256c-0.413,0-0.77-0.082-0.963-0.193l-0.22,3.795
		c0.826,0.193,1.458,0.33,2.421,0.33c5.528,0,5.528-4.069,5.528-6.518V79.107z M107.56,76.935v3.493h-2.64v3.574h2.64v6.903
		c0,3.548,2.228,5.17,5.666,5.17c1.128,0,2.255-0.164,3.355-0.385v-3.685c-0.55,0.109-1.101,0.22-1.733,0.22
		c-1.457,0-2.2-0.771-2.2-2.091v-6.133h3.933v-3.574h-3.933v-5.64L107.56,76.935z M92.984,87.414c0-2.53,0.44-5.005,2.75-5.005
		c2.475,0,2.75,2.475,2.75,5.005c0,2.502-0.275,4.978-2.75,4.978C93.424,92.391,92.984,89.916,92.984,87.414 M87.704,87.414
		c0,4.785,2.558,8.662,8.03,8.662s8.031-3.877,8.031-8.662c0-4.813-2.558-8.691-8.031-8.691S87.704,82.6,87.704,87.414
		 M79.839,95.691h5.17V83.974c0-1.951,0-5.252-4.099-5.252c-2.255,0-3.602,1.073-5.445,2.613v-2.229h-5.17v16.584h5.17V84.635
		c0.743-0.688,1.788-1.677,2.778-1.677c1.264,0,1.595,1.127,1.595,2.529V95.691z M46.094,82.573h7.123l-7.397,9.626v3.492H59.57
		v-3.465h-7.701l7.398-9.709v-3.41H46.094V82.573z M30.802,82.573h7.123l-7.397,9.626v3.492h13.75v-3.465h-7.7l7.398-9.709v-3.41
		H30.802V82.573z M20.297,92.116c-0.963,0-1.65-0.66-1.65-1.622c0-1.376,1.018-2.228,2.613-2.228c0.522,0,1.182,0.055,1.787,0.109
		v2.393C22.36,91.346,21.452,92.116,20.297,92.116 M28.135,85.845c0-4.181-1.485-7.123-6.875-7.123
		c-5.666,0-6.849,3.604-7.096,4.372l4.593,1.321c0.193-1.072,0.743-2.228,2.256-2.228c1.622,0,2.034,0.935,2.034,2.53v0.522
		c-0.55-0.056-1.292-0.11-1.952-0.11c-3.905,0-7.453,1.814-7.453,5.94c0,1.979,1.045,5.005,4.729,5.005
		c1.953,0,3.548-1.43,4.675-2.53h0.083c0,0.605,0.083,1.431,0.11,2.146h5.005c-0.083-0.771-0.109-1.925-0.109-2.914V85.845z
		 M11.194,74.323h-5.17v3.383h5.17V74.323z M11.194,79.107h-5.17v15.951c0,1.265-0.303,2.256-1.595,2.256
		c-0.413,0-0.77-0.082-0.963-0.193l-0.219,3.795c0.825,0.193,1.457,0.33,2.42,0.33c5.528,0,5.528-4.069,5.528-6.518V79.107z"/>
</g>
</svg>
